<svg xmlns="http://www.w3.org/2000/svg" viewBox="0 0 479.5 133.23"><defs><style>.cls-1{fill:#0e4a8f;}.cls-2{fill:#c82030;}</style></defs><title>pulsAsset 1</title><g id="Layer_2" data-name="Layer 2"><g id="Layer_1-2" data-name="Layer 1"><path class="cls-1" d="M269.64,50.86l1.2-4.74H259l-1.2,4.74h-4l2.13-8.45h2c2.46-2.73,4.38-7.25,5.62-12.17l1.38-5.46h12.86l-4.45,17.63h2.46l-2.13,8.45Zm3-22.36H268l-.78,3.09c-1.07,4.23-2.4,7.85-4.62,10.82h6.59Z"/><path class="cls-1" d="M278.78,46.13l5.39-21.34h14.05l-.94,3.72H287.4l-1.26,5h8.42l-.94,3.72H285.2l-1.31,5.19h9.89l-.94,3.72Z"/><path class="cls-1" d="M312.68,46.13l3.14-12.44-6.12,8.09h-2.82l-2.06-8.09-3.14,12.44h-4.17l5.39-21.34H307l2.66,11.54,8.46-11.54h4.11l-5.39,21.34Z"/><path class="cls-1" d="M340,36.23c-.7,2.79-1.44,5.58-4.08,7.73a9.78,9.78,0,0,1-6.34,2.34A6.07,6.07,0,0,1,324.35,44c-1.53-2.13-.76-5.31-.18-7.61l.45-1.77c1.07-4.26,2-6,4-7.64A10,10,0,0,1,335,24.6a6.05,6.05,0,0,1,5.16,2.34c1.11,1.53,1.23,3.57.36,7Zm-3.5-6.77a2.64,2.64,0,0,0-2.38-1.14,4.49,4.49,0,0,0-3,1.14c-1.22,1-1.79,3.06-2.46,5.7l-.27,1.08c-.56,2.22-1,4.23-.3,5.22a2.84,2.84,0,0,0,2.41,1.14,4.42,4.42,0,0,0,3-1.14c1.12-1,1.56-2,2.66-6.38C337,31.56,337.07,30.39,336.46,29.46Z"/><path class="cls-1" d="M342.39,46.13l5.39-21.34h4.17l-2.56,10.13,9.45-10.13h5l-9.69,10,5,11.33H354L349.37,35l-2.81,11.15Z"/><path class="cls-1" d="M375.77,24.78c4.11,0,6.35,2.76,5.36,6.65a8.94,8.94,0,0,1-8.72,6.65H368.3l-2,8h-4.17l5.39-21.34Zm-2.62,9.56A3.82,3.82,0,0,0,377,31.44c.45-1.77-.49-2.94-2.35-2.94h-3.9l-1.47,5.84Z"/><path class="cls-1" d="M393.67,46.13l-.31-3.78h-7.58l-2.24,3.78h-4.35l13.15-21.34h3.27L398,46.13Zm-1.18-15-4.66,7.76h5.3Z"/><path class="cls-1" d="M413.85,28.5l-4.45,17.63h-4.17l4.45-17.63h-5.57l.94-3.72h15.31l-.94,3.72Z"/><path class="cls-1" d="M426.06,46.31A6.06,6.06,0,0,1,420.89,44c-1.61-2.16-.88-4.83.05-8.51s1.54-6.35,4.25-8.51a10,10,0,0,1,6.34-2.34c4,0,6.53,2.28,6.15,6.74h-4.23c0-1.71-.73-3-2.83-3a4.41,4.41,0,0,0-2.95,1.11c-1,.9-1.53,1.92-2.57,6s-1.05,5.13-.47,6A2.65,2.65,0,0,0,427,42.59a4.84,4.84,0,0,0,4.36-3h4.23C433.74,44,430,46.31,426.06,46.31Z"/><path class="cls-1" d="M438.21,46.13l5.39-21.34h4.17l-2.56,10.13,9.45-10.13h5l-9.69,10,5,11.33h-5.09L445.19,35l-2.81,11.15Z"/><path class="cls-1" d="M470,46.13l3.46-13.7-11.76,13.7h-3.72l5.39-21.34h4.17L464,38.45l11.75-13.67h3.72l-5.39,21.34Z"/><path class="cls-1" d="M260.61,77.15l2.25-8.93h-7.22l-2.25,8.93h-4.17l5.39-21.34h4.17l-2.2,8.72h7.22l2.2-8.72h4.17l-5.39,21.34Z"/><path class="cls-1" d="M282.49,77.15l-.31-3.78H274.6l-2.24,3.78H268l13.15-21.34h3.27l2.41,21.34Zm-1.18-15-4.66,7.76H282Z"/><path class="cls-1" d="M303.73,55.81c4.11,0,6.35,2.76,5.36,6.65a9,9,0,0,1-8.72,6.65h-4.11l-2,8h-4.17l5.39-21.34Zm-2.62,9.56a3.82,3.82,0,0,0,3.82-2.91c.45-1.77-.49-2.94-2.35-2.94h-3.9l-1.48,5.84Z"/><path class="cls-1" d="M327,67.26C326.34,70,325.6,72.84,323,75a9.79,9.79,0,0,1-6.34,2.34A6.07,6.07,0,0,1,311.42,75c-1.53-2.13-.76-5.31-.18-7.61l.45-1.77c1.07-4.26,2-6,4-7.64a10,10,0,0,1,6.37-2.34A6.05,6.05,0,0,1,327.26,58c1.11,1.53,1.23,3.57.36,7Zm-3.5-6.77a2.64,2.64,0,0,0-2.38-1.14,4.49,4.49,0,0,0-3,1.14c-1.22,1-1.79,3.06-2.46,5.7l-.27,1.08c-.56,2.22-1,4.23-.3,5.22a2.84,2.84,0,0,0,2.41,1.14,4.42,4.42,0,0,0,3-1.14c1.12-1,1.56-2,2.66-6.38C324.05,62.59,324.14,61.42,323.54,60.49Z"/><path class="cls-1" d="M342,81.89l1.2-4.74H331.35l-1.2,4.74h-4l2.13-8.45h2c2.46-2.73,4.38-7.25,5.62-12.17l1.38-5.46h12.86l-4.45,17.63h2.46L346,81.89Zm3-22.36h-4.71l-.78,3.09c-1.07,4.23-2.4,7.85-4.62,10.82h6.59Z"/><path class="cls-1" d="M362.52,77.15l2.25-8.93h-7.22l-2.25,8.93h-4.17l5.39-21.34h4.17l-2.2,8.72h7.22l2.2-8.72h4.17l-5.39,21.34Z"/><path class="cls-1" d="M384.28,77.15l3.46-13.7L376,77.15h-3.72l5.39-21.34h4.17l-3.45,13.67,11.75-13.67h3.72l-5.39,21.34Z"/><path class="cls-1" d="M248.48,108.36a6.06,6.06,0,0,1-5.16-2.34c-1.61-2.16-.88-4.83.05-8.51s1.54-6.35,4.25-8.51A10,10,0,0,1,254,86.66c4,0,6.53,2.28,6.15,6.74h-4.23c0-1.71-.73-3-2.83-3a4.42,4.42,0,0,0-2.95,1.11c-1,.9-1.53,1.92-2.57,6s-1.05,5.12-.47,6a2.65,2.65,0,0,0,2.39,1.11,4.84,4.84,0,0,0,4.36-3H258C256.16,106.08,252.43,108.36,248.48,108.36Z"/><path class="cls-1" d="M272.71,108.18l-.31-3.78h-7.58l-2.24,3.78h-4.35l13.15-21.34h3.27l2.41,21.34Zm-1.18-15-4.66,7.76h5.3Z"/><path class="cls-1" d="M296.92,98.38a4.32,4.32,0,0,1,.39,3.69,8,8,0,0,1-8.08,6.12H280.3l5.39-21.34h8.57c4,0,6,2.28,5.11,5.88a6.69,6.69,0,0,1-3.78,4.53A4,4,0,0,1,296.92,98.38Zm-7.17,6.08a3.42,3.42,0,0,0,3.45-2.64c.41-1.62-.42-2.61-2.13-2.61h-4.34l-1.32,5.25Zm2-9A3.26,3.26,0,0,0,295.12,93c.39-1.53-.43-2.46-2.14-2.46h-4.08l-1.24,4.92Z"/><path class="cls-1" d="M300.62,108.18,306,86.84h14.06l-.94,3.72h-9.89l-1.26,5h8.42l-.94,3.72H307l-1.31,5.19h9.89l-.94,3.72Z"/><path class="cls-1" d="M319.52,101.71h4.14c0,1.71.83,3,2.89,3a4,4,0,0,0,4.14-2.88c.45-1.8-.35-2.88-2.51-2.88h-2.76l.86-3.42h2.79a3.46,3.46,0,0,0,3.59-2.7c.42-1.65-.53-2.64-2.42-2.64a5,5,0,0,0-4.41,3.09h-4.17a10.24,10.24,0,0,1,9.5-6.65c4.17,0,6.64,2.31,5.73,5.9A7.07,7.07,0,0,1,333,97.15c1.68.84,2.45,2.52,1.86,4.86-1,3.87-4.81,6.35-9.22,6.35C321.71,108.36,319.16,106.08,319.52,101.71Z"/><path class="cls-1" d="M147.12,100.84q.8-2.53,2-6.17t2.62-8q1.42-4.35,2.93-8.79,3.46-10.39,7.64-23.17H151.12a19.13,19.13,0,0,0-5.9,1,25.94,25.94,0,0,0-5.55,2.66,23.6,23.6,0,0,0-4.75,4,18.55,18.55,0,0,0-3.24,4.75h9.05L136.47,80.2H109.93l8.35-25.48a23.3,23.3,0,0,0-7.9,1.33,29.52,29.52,0,0,0-6.57,3.24,23.9,23.9,0,0,0-4.7,4,12.72,12.72,0,0,0-2.46,4L80.45,116.6a20.42,20.42,0,0,0,6.75-1.24,32.88,32.88,0,0,0,6.66-3.2,28.6,28.6,0,0,0,5.41-4.35,13,13,0,0,0,3.11-4.79l3.37-10.21H132.3l-7.81,23.79a23.34,23.34,0,0,0,7.9-1.33A29.58,29.58,0,0,0,139,112a23.11,23.11,0,0,0,4.7-4.08,12.14,12.14,0,0,0,2.4-3.77Q146.33,103.37,147.12,100.84Z"/><path class="cls-1" d="M220,74.52l6.48-19.8H202.64a67.41,67.41,0,0,0-17.45,2,42.89,42.89,0,0,0-13.27,5.95,36.94,36.94,0,0,0-9.59,9.59,50.43,50.43,0,0,0-6.3,13L145.82,116.6H169.7q17.13,0,27.74-6.13A39.55,39.55,0,0,0,213.56,92.9H194.12a30.83,30.83,0,0,1-11.05,8.21,39.35,39.35,0,0,1-15.85,3.06l4.53-13.85A37.86,37.86,0,0,1,176.32,81a30,30,0,0,1,7-7.32,32.48,32.48,0,0,1,9.54-4.79,42,42,0,0,1,12.25-1.82l-2.4,7.46Z"/><path class="cls-1" d="M84.16,93.1c.08-.22.16-.43.23-.65l4.48-13.29L90.63,74h0l6.46-19.16H87.41q-8.17,0-15.4.67a79.14,79.14,0,0,0-13.58,2.4,54.25,54.25,0,0,0-11.85,4.75A43.07,43.07,0,0,0,36.5,70.3a55.56,55.56,0,0,0-8.34,11.19A79.21,79.21,0,0,0,21.54,96.8L19.14,104H9.43L0,132.94a24.75,24.75,0,0,0,6.86-1,30.69,30.69,0,0,0,6.57-2.75,24.58,24.58,0,0,0,5.33-4,12.1,12.1,0,0,0,3.06-4.66l1.26-3.91H45.51q2.84,0,6.17-.31a49.82,49.82,0,0,0,6.88-1.15l1-.27-6.09,18.36A20.42,20.42,0,0,0,60.26,132a32.88,32.88,0,0,0,6.66-3.2,28.6,28.6,0,0,0,5.41-4.35,13,13,0,0,0,3.11-4.79L77.86,112,82,99.4Zm-32.59,9.49a37.09,37.09,0,0,1-11.05,1.51h-4l.62-1.86c1.12-3.37,2.25-6.51,3.52-9.74a53.08,53.08,0,0,1,4.84-9.37A35.87,35.87,0,0,1,58,71.37a34.82,34.82,0,0,1,17.35-4.22l-6.21,19a23.15,23.15,0,0,1-3.37,6.79,24.73,24.73,0,0,1-5.86,5.77A28.75,28.75,0,0,1,51.57,102.59Z"/><path class="cls-2" d="M252.28,0l-10,30.37q-4.16,1.49-8.38,2.61c-54,14.47-114.43-13.49-161.45,8.86l-2.11.71a74.71,74.71,0,0,0-14.88,7.34,85.7,85.7,0,0,0-13.22,8.68q1.65-2.06,3.51-4.06c1.22-1.31,2.5-2.6,3.84-3.88C64.23,36.57,85.9,24,114.26,20.51c35-4.26,40.15,4.14,77.52-.22C227.27,16.15,249.58,1.77,252.28,0Z"/><path class="cls-1" d="M237.61,21.8,233.91,33l-2.72,8.24a142.58,142.58,0,0,1-46.43,7.64c-31.68.13-45.21-15.67-80.83-12.31C83.36,38.5,67.69,43.34,55.47,49.88a85.7,85.7,0,0,0-13.22,8.68q-2.08,1.66-4,3.38A100,100,0,0,1,49.6,50.62c13.79-11.72,32-20.36,56.72-22.68,36.75-3.44,49.32,9.25,84,6.27A150.87,150.87,0,0,0,237.61,21.8Z"/></g></g></svg>