<svg xmlns="http://www.w3.org/2000/svg" viewBox="0 0 44.8 48"><defs><style>.cls-1{fill:#fff;}</style></defs><title>pulsAsset 2</title><g id="Layer_2" data-name="Layer 2"><g id="Layer_1-2" data-name="Layer 1"><path class="cls-1" d="M44,3.2H38.4V.8a.8.8,0,0,0-.8-.8H32a.8.8,0,0,0-.8.8V3.2H13.6V.8a.8.8,0,0,0-.8-.8H7.2a.8.8,0,0,0-.8.8V3.2H.8A.8.8,0,0,0,0,4V47.2a.8.8,0,0,0,.8.8H44a.8.8,0,0,0,.8-.8V4a.8.8,0,0,0-.8-.8ZM32.8,1.6h4V6.4h-4ZM8,1.6h4V6.4H8ZM1.6,4.8H6.4V7.2a.8.8,0,0,0,.8.8h5.6a.8.8,0,0,0,.8-.8V4.8H31.2V7.2A.8.8,0,0,0,32,8h5.6a.8.8,0,0,0,.8-.8V4.8h4.8V12H1.6Zm0,41.6V13.6H43.2V46.4Zm0,0"/><path class="cls-1" d="M28.8,18.4H7.2V41.6H37.6V18.4ZM23.2,20h5.6v5.6H23.2Zm5.6,12.8H23.2V27.2h5.6ZM16,27.2h5.6v5.6H16ZM16,20h5.6v5.6H16ZM8.8,20h5.6v5.6H8.8Zm0,7.2h5.6v5.6H8.8ZM14.4,40H8.8V34.4h5.6Zm7.2,0H16V34.4h5.6Zm7.2,0H23.2V34.4h5.6ZM36,40H30.4V34.4H36Zm0-7.2H30.4V27.2H36ZM36,20v5.6H30.4V20Zm0,0"/></g></g></svg>