<svg xmlns="http://www.w3.org/2000/svg" viewBox="0 0 46.39 43.64"><defs><style>.cls-1{fill:#fff;}</style></defs><title>pulsAsset 1</title><g id="Layer_2" data-name="Layer 2"><g id="Layer_1-2" data-name="Layer 1"><path class="cls-1" d="M24,13.65H12.8v11.2H24Zm-1.6,9.6h-8v-8h8Zm0,0"/><path class="cls-1" d="M40.8,13.65H28a.8.8,0,1,0,0,1.6H40.8a.8.8,0,1,0,0-1.6Zm0,0"/><path class="cls-1" d="M40.8,18.45H28A.8.8,0,1,0,28,20H40.8a.8.8,0,1,0,0-1.6Zm0,0"/><path class="cls-1" d="M40.8,23.24H28a.8.8,0,1,0,0,1.6H40.8a.8.8,0,1,0,0-1.6Zm0,0"/><path class="cls-1" d="M26.4,28H13.6a.8.8,0,1,0,0,1.6H26.4a.8.8,0,1,0,0-1.6Zm0,0"/><path class="cls-1" d="M26.4,32.75H13.6a.8.8,0,1,0,0,1.6H26.4a.8.8,0,1,0,0-1.6Zm0,0"/><path class="cls-1" d="M26.4,37.55H13.6a.8.8,0,1,0,0,1.6H26.4a.8.8,0,0,0,0-1.6Zm0,0"/><path class="cls-1" d="M30.09,39.15h11.2V28H30.09Zm1.6-9.6h8v8h-8Zm0,0"/><path class="cls-1" d="M46.39,10.36V.51A.51.51,0,0,0,45.88,0H8.51A.51.51,0,0,0,8,.51V23.24H.53a.53.53,0,0,0-.53.53V38.84a4.8,4.8,0,0,0,4.8,4.8H41.6a4.79,4.79,0,0,0,4.79-4.79V10.36ZM44.79,1.6v8H9.6v-8ZM1.6,38.84v-14H8V38.72A3.28,3.28,0,0,1,5.44,42,3.2,3.2,0,0,1,1.6,38.84Zm40,3.2H8.38l0,0a5,5,0,0,0,.45-.6l.06-.1a4.27,4.27,0,0,0,.34-.68l0-.1a4.54,4.54,0,0,0,.22-.76v-.07a4.74,4.74,0,0,0,.08-.85V11.2H44.79V38.85A3.19,3.19,0,0,1,41.6,42Zm0,0"/><path class="cls-1" d="M36.77,3.14H17.57v4.8h19.2Zm-1.6,3.2h-16V4.74h16Zm0,0"/></g></g></svg>